# xmcd CD database file
#
# Track frame offsets:
#	150
#	33780
#	56955
#	78890
#	110550
#	154412
#	178292
#	214427
#
# Disc length: 3426 seconds
#
# Revision: 0
# Processed by: cddbd v1.5PL3 Copyright (c) Steve Scherf et al.
# Submitted via: CDex 1.51
#
DISCID=710d6008
DTITLE=Sakumoto Trio - Fancy Jazz Piano
DYEAR=1900
DGENRE=Jazz
TTITLE0=Wave
TTITLE1=Hey Paula
TTITLE2=Cute
TTITLE3=Un Buco Nella Sabbia
TTITLE4=Ai No Suichuka
TTITLE5=Bewer No. 90
TTITLE6=Onna Hitori
TTITLE7=The Shadow of Your Smile
EXTD=
EXTT0=
EXTT1=
EXTT2=
EXTT3=
EXTT4=
EXTT5=
EXTT6=
EXTT7=
PLAYORDER=
